<svg id="logo" xmlns="http://www.w3.org/2000/svg" viewBox="0 0 57.69 28.79"><defs><style>.cls-1{fill:none;}</style></defs><rect class="cls-1" width="57.69" height="28.79"/><path d="M64.35,58.67c0,1.75-.73,2.31-2.09,2.31-1.56,0-2.08-.78-2.08-2.4v-4.4h1V58.5c0,.59,0,1.7,1.06,1.7.9,0,1.07-.66,1.07-1.65V54.18h1Z" transform="translate(-53.5 -47.5)"/><path d="M92,69.61l-2-5.77v5.77h-.86V62.93h1.51l2,5.77V62.93h.92v6.68Z" transform="translate(-53.5 -47.5)"/><path d="M68.56,60.86l-2-5.77v5.77h-.86V54.18H67.2l2,5.77V54.18h.92v6.68Z" transform="translate(-53.5 -47.5)"/><path d="M71.69,60.86V54.18h1v6.68Z" transform="translate(-53.5 -47.5)"/><path d="M93.7,60.86V54.18h1v6.68Z" transform="translate(-53.5 -47.5)"/><path d="M76.47,60.86H75.25l-1.69-6.68h1.08l1.26,5.73,1.32-5.73h1Z" transform="translate(-53.5 -47.5)"/><path d="M79,60.86V54.18h3.31V55H80.07v2H82.2v.77H80.07v2.28h2.34v.8Z" transform="translate(-53.5 -47.5)"/><path d="M84.59,69.61V62.93H87.9v.8H85.62v2h2.13v.77H85.62v2.27H88v.8Z" transform="translate(-53.5 -47.5)"/><path d="M99.39,69.61V62.93h3.3v.8h-2.28v2h2.14v.77h-2.14v2.27h2.35v.8Z" transform="translate(-53.5 -47.5)"/><path d="M86.38,60.86a17,17,0,0,1-.11-1.75,1.92,1.92,0,0,0-.19-1c-.12-.18-.41-.27-.85-.27h-.62v3h-1V54.18H85.5c1.1,0,1.91.26,1.91,1.69a1.45,1.45,0,0,1-1.09,1.62.94.94,0,0,1,.77.38,2.25,2.25,0,0,1,.22,1.07,16.5,16.5,0,0,0,.13,1.92Zm0-4.91c0-.77-.41-1-1-1h-.7V57.1h.54C86,57.1,86.36,56.86,86.36,56Z" transform="translate(-53.5 -47.5)"/><path d="M92.43,59.18c0,1.19-.65,1.8-2,1.8-1.47,0-2-.59-2-2v-.07h1.06V59c0,.8.2,1.23.92,1.23s.91-.32.91-1a1.16,1.16,0,0,0-.63-1l-.57-.35c-1-.61-1.6-1-1.6-2.09s.69-1.74,2-1.74,1.83.56,1.83,1.67V56h-1v-.17c0-.64-.28-1-.84-1a.81.81,0,0,0-.86.89c0,.66.48.88.92,1.17l.47.3C92.07,57.85,92.43,58.15,92.43,59.18Z" transform="translate(-53.5 -47.5)"/><path d="M98.17,55v5.88h-1V55H95.59v-.8h4.12V55Z" transform="translate(-53.5 -47.5)"/><path d="M74.21,63.73v5.88h-1V63.73H71.63v-.8h4.12v.8Z" transform="translate(-53.5 -47.5)"/><path d="M97,63.73v5.88H96V63.73H94.43v-.8h4.11v.8Z" transform="translate(-53.5 -47.5)"/><path d="M82.28,69.61H81.07L80,64l-1.15,5.6H77.67l-1.42-6.68h1.09l1,5.59,1.15-5.59h1.21l1,5.59,1.06-5.59h1Z" transform="translate(-53.5 -47.5)"/><path d="M104.72,69.22a.54.54,0,1,1-1.07,0,.54.54,0,1,1,1.07,0Z" transform="translate(-53.5 -47.5)"/><path d="M102.7,58.31v2.55h-1V58.31l-1.76-4.13h1.15l1.2,3.19,1.23-3.19h1.06Z" transform="translate(-53.5 -47.5)"/><path d="M64.46,66.33a6.27,6.27,0,0,1-.32,2.45,1.84,1.84,0,0,1-1.86,1,1.8,1.8,0,0,1-1.79-.91,3.44,3.44,0,0,1-.26-1c0-.31,0-.8,0-1.47a14.11,14.11,0,0,1,.08-1.75,2.36,2.36,0,0,1,.47-1.18,2,2,0,0,1,1.58-.6,1.78,1.78,0,0,1,2.06,1.72A12.61,12.61,0,0,1,64.46,66.33Zm-1.08-.12a10.66,10.66,0,0,0-.08-1.67q-.18-1-1-1c-.53,0-.86.34-1,1a3.23,3.23,0,0,0-.06.59c0,.27,0,.62,0,1s0,.74,0,1a3.32,3.32,0,0,0,0,.63,1.62,1.62,0,0,0,.29.8.89.89,0,0,0,.72.29c.55,0,.88-.35,1-1,0-.14,0-.35.06-.64S63.38,66.65,63.38,66.21Z" transform="translate(-53.5 -47.5)"/><path d="M66.79,63.73v2.05h2v.78h-2v3h-1V62.93h3.12v.8Z" transform="translate(-53.5 -47.5)"/></svg>