<svg id="logo" xmlns="http://www.w3.org/2000/svg" viewBox="0 0 57.69 28.79"><defs><style>.cls-1{fill:none;}.cls-2{fill:#fff;}</style></defs><rect class="cls-1" width="57.69" height="28.79"/><path class="cls-2" d="M62.25,60.26c-1.06,0-1.1-1.06-1.1-1.64V54.18h-1V58.6c0,1.62.55,2.38,2.07,2.38,1.36,0,2.06-.54,2.07-2.3v-4.5h-.95v4.38C63.37,59.56,63.2,60.26,62.25,60.26Z" transform="translate(-53.5 -47.5)"/><path class="cls-2" d="M70.11,60.86V54.18h-.86v5.94l-2.09-5.94H65.69v6.68h.81v-6l2.09,6Z" transform="translate(-53.5 -47.5)"/><path class="cls-2" d="M93.69,69.61V62.93h-.86v5.94l-2.09-5.94H89.27v6.68h.81V63.67l2.09,5.94Z" transform="translate(-53.5 -47.5)"/><path class="cls-2" d="M72.68,60.86V54.18h-1v6.68Z" transform="translate(-53.5 -47.5)"/><path class="cls-2" d="M94.67,60.86V54.18h-1v6.68Z" transform="translate(-53.5 -47.5)"/><path class="cls-2" d="M75.88,60l-1.31-5.84h-1l1.68,6.68h1.18l1.76-6.68h-1Z" transform="translate(-53.5 -47.5)"/><path class="cls-2" d="M82.37,60.12H80V57.75h2.16V57H80V54.92h2.31v-.74H79v6.68h3.33Z" transform="translate(-53.5 -47.5)"/><path class="cls-2" d="M88.05,68.88H85.68V66.51h2.15V65.8H85.68V63.67H88v-.74H84.71v6.68h3.34Z" transform="translate(-53.5 -47.5)"/><path class="cls-2" d="M102.84,68.88h-2.37V66.51h2.16V65.8h-2.16V63.67h2.31v-.74H99.5v6.68h3.34Z" transform="translate(-53.5 -47.5)"/><path class="cls-2" d="M86.09,58.13a2.23,2.23,0,0,1,.2,1,16,16,0,0,0,.1,1.74h1a16.9,16.9,0,0,1-.13-1.9,2.17,2.17,0,0,0-.21-1.06,1.1,1.1,0,0,0-.83-.42c.79-.14,1.15-.76,1.15-1.63,0-1.42-.79-1.67-1.9-1.67h-1.9v6.68h1v-3h.66A1.07,1.07,0,0,1,86.09,58.13Zm.29-2.2c0,.94-.36,1.2-1.26,1.2h-.58V54.9h.74C85.94,54.9,86.38,55.14,86.38,55.93Z" transform="translate(-53.5 -47.5)"/><path class="cls-2" d="M88.48,59c0,1.41.49,2,2,2,1.31,0,2-.59,2-1.79,0-1-.35-1.31-1.41-2l-.48-.31c-.44-.29-.94-.52-.94-1.21a.85.85,0,0,1,.9-.93c.59,0,.89.35.89,1v.13h1V55.7c0-1.11-.59-1.64-1.81-1.65s-1.94.62-1.94,1.72.6,1.47,1.6,2.08l.57.36a1.23,1.23,0,0,1,.66,1.07.87.87,0,0,1-1,1c-.74,0-1-.47-1-1.27v0h-1Z" transform="translate(-53.5 -47.5)"/><path class="cls-2" d="M97.11,54.92v5.94h1V54.92h1.55v-.74H95.55v.74ZM73.28,63.67v5.94h1V63.67h1.56v-.74H71.72v.74Zm22.82,0v5.94h1V63.67h1.55v-.74H94.54v.74Z" transform="translate(-53.5 -47.5)"/><path class="cls-2" d="M80.13,63.9l1.07,5.71h1.17l1.48-6.68h-.91l-1.1,5.66-1.09-5.66H79.59L78.4,68.59l-1-5.66h-1l1.42,6.68h1.17Z" transform="translate(-53.5 -47.5)"/><path class="cls-2" d="M104.77,69.25a.51.51,0,0,1-.51.51.51.51,0,0,1-.51-.51.51.51,0,0,1,.51-.51A.5.5,0,0,1,104.77,69.25Z" transform="translate(-53.5 -47.5)"/><path class="cls-2" d="M101.64,58.32v2.54h1V58.32l1.85-4.14h-1l-1.26,3.28L101,54.18H99.88l1.76,4.14Z" transform="translate(-53.5 -47.5)"/><path class="cls-2" d="M60.73,63.4a2.4,2.4,0,0,0-.47,1.18h0a14.26,14.26,0,0,0-.08,1.77h0c0,.67,0,1.16,0,1.48h0a3.36,3.36,0,0,0,.26,1h0a1.81,1.81,0,0,0,1.78.91h0a1.85,1.85,0,0,0,1.85-.95h0a6.49,6.49,0,0,0,.31-2.45h0a14.87,14.87,0,0,0-.08-1.82h0a2.18,2.18,0,0,0-.48-1.17h0a2,2,0,0,0-1.57-.54h0a2,2,0,0,0-1.57.59ZM62.3,69a.9.9,0,0,1-.75-.3h0a1.78,1.78,0,0,1-.31-.83h0a4.61,4.61,0,0,1-.05-.64h0c0-.27,0-.61,0-1h0c0-.43,0-.79,0-1.06h0a4.51,4.51,0,0,1,.06-.6h0c.14-.7.5-1.06,1-1.06h0c.56,0,.91.34,1,1h0a10.61,10.61,0,0,1,.09,1.69h0c0,.45,0,.81,0,1.1h0a6.35,6.35,0,0,1-.06.65h0c-.11.7-.47,1.07-1,1.07h0Z" transform="translate(-53.5 -47.5)"/><path class="cls-2" d="M65.82,69.61h1V66.53h2v-.72h-2V63.67h2.1v-.73H65.82v6.67Z" transform="translate(-53.5 -47.5)"/></svg>